<?xml version="1.0" standalone="no"?>
<!DOCTYPE svg PUBLIC "-//W3C//DTD SVG 20010904//EN"
 "http://www.w3.org/TR/2001/REC-SVG-20010904/DTD/svg10.dtd">
<svg version="1.0" xmlns="http://www.w3.org/2000/svg"
 width="590.000000pt" height="595.000000pt" viewBox="0 0 590.000000 595.000000"
 preserveAspectRatio="xMidYMid meet">

<g transform="translate(0.000000,595.000000) scale(0.100000,-0.100000)"
fill="#e94154" stroke="none">
<path d="M4424 5785 c-12 -9 -31 -12 -51 -9 -26 5 -33 3 -33 -10 0 -15 -2 -15
-26 1 -22 14 -30 15 -58 4 -17 -7 -50 -12 -74 -11 -37 1 -44 -3 -60 -29 -9
-17 -25 -31 -35 -31 -10 0 -20 -7 -23 -15 -5 -12 -15 -14 -39 -9 -31 6 -35 3
-54 -34 -11 -22 -29 -43 -40 -47 -10 -3 -37 -19 -60 -35 -36 -27 -41 -35 -41
-70 0 -34 -4 -42 -30 -55 -21 -11 -30 -23 -30 -39 0 -13 -7 -26 -15 -30 -8 -3
-15 -13 -15 -22 0 -9 -13 -32 -30 -51 -34 -38 -36 -50 -16 -97 12 -30 12 -37
-1 -56 -13 -18 -14 -29 -4 -61 7 -22 9 -44 6 -50 -9 -14 20 -56 45 -64 11 -3
20 -15 20 -26 0 -10 5 -19 10 -19 6 0 10 -9 10 -21 0 -33 19 -59 44 -59 31 0
53 -20 119 -112 32 -43 81 -96 114 -120 31 -24 65 -51 75 -61 12 -11 26 -15
42 -11 20 5 27 0 38 -23 11 -23 20 -28 51 -28 27 -1 41 -7 53 -23 25 -36 48
-42 169 -48 l115 -5 18 30 c16 28 20 30 76 28 57 -1 60 0 95 39 20 23 44 44
54 47 11 4 17 17 17 36 0 20 6 30 20 34 12 3 20 14 20 25 0 17 7 21 37 24 48
4 75 39 75 101 0 40 5 52 34 81 30 30 34 40 34 87 0 40 -5 58 -21 75 l-21 23
21 13 c12 7 21 22 21 34 0 22 -29 54 -49 54 -7 0 -2 13 13 31 22 26 26 40 26
93 0 78 -13 97 -84 121 -46 16 -57 24 -72 57 -9 20 -25 40 -35 43 -14 5 -16
13 -12 39 4 27 0 39 -25 67 -28 32 -35 34 -91 34 -43 0 -61 4 -61 13 0 7 -11
18 -25 24 -16 7 -25 19 -25 35 0 13 -11 35 -25 48 -20 20 -34 25 -78 25 -36 0
-59 5 -67 15 -15 19 -21 19 -46 0z"/>
<path d="M1540 5713 c-29 -24 -33 -25 -42 -10 -5 10 -21 17 -37 17 -22 0 -31
-7 -41 -30 -12 -28 -13 -29 -36 -13 -18 11 -42 14 -95 11 -84 -5 -99 -17 -117
-100 -11 -47 -17 -57 -47 -71 -23 -11 -35 -24 -35 -37 0 -17 -7 -20 -40 -20
-68 0 -97 -46 -88 -141 4 -35 2 -49 -7 -49 -7 0 -18 -13 -24 -30 -7 -23 -16
-30 -35 -30 -38 0 -58 -38 -55 -104 2 -34 -2 -61 -11 -71 -11 -13 -10 -20 7
-44 14 -18 19 -36 16 -54 -4 -20 -1 -27 10 -27 13 0 13 -5 4 -30 -9 -25 -8
-35 6 -59 9 -16 17 -45 17 -65 0 -31 5 -40 35 -57 19 -12 35 -27 35 -34 0 -8
6 -18 14 -22 8 -4 16 -21 18 -38 2 -23 11 -34 39 -47 20 -9 54 -42 78 -73 43
-57 44 -57 88 -52 40 4 46 2 55 -19 8 -17 19 -24 38 -24 15 0 33 -7 40 -15 7
-8 19 -15 27 -15 8 0 26 -9 40 -20 31 -24 73 -26 113 -5 24 12 34 13 49 3 15
-9 28 -9 58 0 21 6 50 14 65 17 20 4 32 16 43 41 8 19 19 33 24 30 5 -4 13 -1
18 6 4 7 21 18 38 23 23 8 31 18 37 50 7 31 27 57 101 130 51 49 101 108 112
130 10 22 28 50 38 62 14 16 18 30 14 53 -6 26 -3 32 19 40 23 9 26 15 22 48
-4 29 0 43 19 65 32 40 35 58 26 177 l-8 105 -32 15 c-29 13 -33 20 -33 57 0
61 -15 91 -54 109 -19 9 -39 28 -45 41 -9 20 -16 23 -40 18 -24 -5 -29 -2 -34
16 -5 17 -11 21 -31 17 -24 -5 -26 -2 -26 28 0 52 -40 77 -112 71 -33 -3 -58
-1 -58 4 0 19 -66 49 -107 49 -30 0 -50 -7 -73 -27z"/>
<path d="M2845 5150 c-251 -54 -488 -183 -671 -365 -139 -138 -219 -271 -266
-440 -18 -66 -22 -107 -22 -242 -1 -89 1 -164 4 -167 14 -14 473 -28 760 -23
432 7 658 38 815 112 89 42 104 55 154 137 85 135 123 275 123 448 0 169 -44
274 -163 384 -65 61 -187 126 -284 152 -97 26 -338 28 -450 4z"/>
<path d="M3830 4697 c0 -2 -7 -74 -15 -161 -17 -174 -33 -230 -93 -332 -23
-37 -39 -71 -36 -76 3 -4 20 -8 38 -8 97 0 204 -78 257 -186 25 -50 35 -88 44
-167 11 -100 12 -101 23 -62 20 72 61 308 67 395 8 99 -8 256 -36 345 -26 84
-86 165 -160 214 -52 35 -89 50 -89 38z"/>
<path d="M1780 4140 c-22 -66 -25 -92 -24 -220 0 -139 1 -148 32 -227 47 -117
57 -121 71 -28 16 111 14 140 -16 198 -25 48 -27 65 -33 202 l-5 150 -25 -75z"/>
<path d="M2110 3564 c-8 -1 -62 -8 -120 -14 -150 -18 -150 -18 -150 -84 0 -52
2 -57 31 -71 40 -21 54 -57 73 -185 8 -58 22 -125 31 -150 33 -95 127 -154
263 -166 99 -8 261 10 311 36 100 51 179 153 232 301 34 97 70 139 116 139 37
0 87 -56 108 -120 46 -144 148 -280 237 -320 101 -44 315 -52 420 -15 60 21
131 84 151 132 8 21 22 88 31 148 23 149 31 170 72 194 33 20 34 23 34 80 0
70 22 62 -213 86 -246 25 -394 16 -647 -42 -153 -35 -236 -34 -414 6 -76 17
-180 36 -230 41 -82 8 -298 11 -336 4z m331 -34 c181 -19 283 -67 309 -146 10
-28 9 -50 -5 -109 -22 -102 -69 -190 -135 -256 -78 -79 -126 -94 -300 -94
-128 0 -138 1 -193 28 -68 34 -99 74 -127 166 -22 71 -27 189 -9 242 16 48 54
95 99 125 40 26 190 63 238 58 15 -2 70 -8 123 -14z m1144 0 c92 -15 163 -56
200 -114 29 -48 30 -54 30 -165 0 -106 -3 -121 -29 -178 -33 -72 -55 -95 -116
-122 -162 -71 -408 -31 -505 82 -76 88 -145 268 -130 344 12 66 93 115 245
147 77 17 221 20 305 6z"/>
<path d="M2332 3300 c-62 -38 -83 -147 -39 -210 59 -87 181 -93 250 -11 53 64
29 192 -43 228 -40 20 -130 16 -168 -7z"/>
<path d="M3281 3283 c-67 -67 -65 -161 4 -222 65 -57 157 -51 214 14 28 32 31
42 31 100 0 60 -3 68 -34 102 -32 35 -38 37 -105 41 l-71 4 -39 -39z"/>
<path d="M1433 2706 c-88 -28 -176 -107 -216 -194 -22 -47 -22 -49 -22 -832
l0 -785 23 -47 c38 -75 96 -134 170 -170 l67 -33 1440 0 1440 0 55 26 c78 37
131 87 171 161 l34 63 3 760 c2 747 2 761 -19 829 -17 58 -30 78 -77 126 -31
31 -79 67 -107 81 l-50 24 -1435 2 c-1162 1 -1443 -1 -1477 -11z"/>
<path d="M1242 495 c-46 -20 -62 -65 -62 -171 0 -98 14 -133 64 -159 28 -14
180 -16 1663 -13 l1633 3 32 33 c32 32 33 34 36 136 l4 104 -35 39 -35 38
-1634 2 c-1400 2 -1638 0 -1666 -12z"/>
</g>
</svg>
